M48
; DRILL file {KiCad (6.0.2)} date Mon Dec  1 11:41:41 2025
; FORMAT={-:-/ absolute / inch / decimal}
; #@! TF.CreationDate,2025-12-01T11:41:41-08:00
; #@! TF.GenerationSoftware,Kicad,Pcbnew,(6.0.2)
; #@! TF.FileFunction,Plated,1,2,PTH
FMAT,2
INCH
; #@! TA.AperFunction,Plated,PTH,ComponentDrill
T1C0.0315
; #@! TA.AperFunction,Plated,PTH,ComponentDrill
T2C0.0350
; #@! TA.AperFunction,Plated,PTH,ComponentDrill
T3C0.0354
; #@! TA.AperFunction,Plated,PTH,ComponentDrill
T4C0.0512
; #@! TA.AperFunction,Plated,PTH,ComponentDrill
T5C0.0591
; #@! TA.AperFunction,Plated,PTH,ComponentDrill
T6C0.0866
; #@! TA.AperFunction,Plated,PTH,ComponentDrill
T7C0.0902
; #@! TA.AperFunction,Plated,PTH,ComponentDrill
T8C0.0945
%
G90
G05
T1
X5.1125Y-3.6375
X5.1125Y-3.7625
X5.1125Y-3.9714
X5.1125Y-4.0501
X5.3129Y-3.9121
X5.3129Y-4.2121
X5.4125Y-3.6375
X5.4125Y-3.7625
X5.4129Y-3.9121
X5.4129Y-4.2121
X5.5125Y-3.6375
X5.5125Y-3.7625
X5.5129Y-3.9121
X5.5129Y-4.2121
X5.6129Y-3.9121
X5.6129Y-4.2121
X5.8125Y-3.6375
X5.8125Y-3.7625
T2
X5.3286Y-3.3777
X5.3286Y-3.4761
X5.4113Y-3.3777
X5.5137Y-3.3777
X5.5964Y-3.3777
X5.5964Y-3.4761
T3
X5.825Y-3.9838
X5.825Y-4.0625
X5.825Y-4.1412
T4
X5.1672Y-4.5538
X5.2656Y-4.4554
X5.3641Y-4.9475
X5.4625Y-4.5538
X5.5609Y-4.9475
X5.6594Y-4.4554
X5.7578Y-4.5538
T5
X5.825Y-3.9011
X5.825Y-4.2239
T6
X5.1Y-4.225
X5.825Y-3.475
T7
X5.1968Y-3.2596
X5.4625Y-3.2281
X5.7282Y-3.2596
T8
X5.1672Y-4.7507
X5.7578Y-4.7507
T0
M30
