%TF.GenerationSoftware,KiCad,Pcbnew,(6.0.2)*%
%TF.CreationDate,2025-12-01T11:41:35-08:00*%
%TF.ProjectId,ps2-xt,7073322d-7874-42e6-9b69-6361645f7063,rev?*%
%TF.SameCoordinates,Original*%
%TF.FileFunction,Copper,L1,Top*%
%TF.FilePolarity,Positive*%
%FSLAX46Y46*%
G04 Gerber Fmt 4.6, Leading zero omitted, Abs format (unit mm)*
G04 Created by KiCad (PCBNEW (6.0.2)) date 2025-12-01 11:41:35*
%MOMM*%
%LPD*%
G01*
G04 APERTURE LIST*
%TA.AperFunction,ComponentPad*%
%ADD10C,4.000500*%
%TD*%
%TA.AperFunction,ComponentPad*%
%ADD11C,1.371600*%
%TD*%
%TA.AperFunction,ComponentPad*%
%ADD12C,1.600000*%
%TD*%
%TA.AperFunction,ComponentPad*%
%ADD13O,1.600000X1.600000*%
%TD*%
%TA.AperFunction,ComponentPad*%
%ADD14R,1.600000X1.600000*%
%TD*%
%TA.AperFunction,ComponentPad*%
%ADD15C,4.400000*%
%TD*%
%TA.AperFunction,ComponentPad*%
%ADD16O,3.500000X2.200000*%
%TD*%
%TA.AperFunction,ComponentPad*%
%ADD17R,2.500000X1.500000*%
%TD*%
%TA.AperFunction,ComponentPad*%
%ADD18O,2.500000X1.500000*%
%TD*%
%TA.AperFunction,ComponentPad*%
%ADD19C,2.300000*%
%TD*%
%TA.AperFunction,ComponentPad*%
%ADD20C,4.000000*%
%TD*%
%TA.AperFunction,Conductor*%
%ADD21C,0.400000*%
%TD*%
%TA.AperFunction,Conductor*%
%ADD22C,0.800000*%
%TD*%
G04 APERTURE END LIST*
D10*
%TO.P,J2,~*%
%TO.N,GND*%
X138747500Y-81993280D03*
X131997500Y-82793280D03*
X145497500Y-82793280D03*
D11*
%TO.P,J2,6*%
%TO.N,unconnected-(J2-Pad6)*%
X142147500Y-88293280D03*
%TO.P,J2,5*%
%TO.N,/AT_CLK*%
X135347500Y-88293280D03*
%TO.P,J2,4*%
%TO.N,VCC*%
X142147500Y-85793280D03*
%TO.P,J2,3*%
%TO.N,GND*%
X135347500Y-85793280D03*
%TO.P,J2,2*%
%TO.N,unconnected-(J2-Pad2)*%
X140047500Y-85793280D03*
%TO.P,J2,1*%
%TO.N,/AT_DATA*%
X137447500Y-85793280D03*
%TD*%
D12*
%TO.P,R3,1*%
%TO.N,VCC*%
X147637500Y-92392500D03*
D13*
%TO.P,R3,2*%
%TO.N,Net-(R3-Pad2)*%
X140017500Y-92392500D03*
%TD*%
D14*
%TO.P,C1,1*%
%TO.N,VCC*%
X129857500Y-102872612D03*
D12*
%TO.P,C1,2*%
%TO.N,GND*%
X129857500Y-100872612D03*
%TD*%
D14*
%TO.P,U1,1,VDD*%
%TO.N,VCC*%
X134947500Y-106987500D03*
D13*
%TO.P,U1,2,GP5*%
%TO.N,/XT_CLK*%
X137487500Y-106987500D03*
%TO.P,U1,3,GP4*%
%TO.N,/XT_DATA*%
X140027500Y-106987500D03*
%TO.P,U1,4,GP3*%
%TO.N,Net-(R3-Pad2)*%
X142567500Y-106987500D03*
%TO.P,U1,5,GP2*%
%TO.N,/AT_CLK*%
X142567500Y-99367500D03*
%TO.P,U1,6,GP1*%
%TO.N,/AT_DATA*%
X140027500Y-99367500D03*
%TO.P,U1,7,GP0*%
%TO.N,Net-(D1-Pad1)*%
X137487500Y-99367500D03*
%TO.P,U1,8,VSS*%
%TO.N,GND*%
X134947500Y-99367500D03*
%TD*%
D14*
%TO.P,D1,1,K*%
%TO.N,Net-(D1-Pad1)*%
X129857500Y-92392500D03*
D13*
%TO.P,D1,2,A*%
%TO.N,/AT_CLK*%
X137477500Y-92392500D03*
%TD*%
D15*
%TO.P,H1,1,1*%
%TO.N,GND*%
X147955000Y-88265000D03*
%TD*%
%TO.P,H2,1,1*%
%TO.N,GND*%
X129540000Y-107315000D03*
%TD*%
D16*
%TO.P,SW1,*%
%TO.N,*%
X147955000Y-107287500D03*
X147955000Y-99087500D03*
D17*
%TO.P,SW1,1,A*%
%TO.N,unconnected-(SW1-Pad1)*%
X147955000Y-105187500D03*
D18*
%TO.P,SW1,2,B*%
%TO.N,Net-(R3-Pad2)*%
X147955000Y-103187500D03*
%TO.P,SW1,3,C*%
%TO.N,GND*%
X147955000Y-101187500D03*
%TD*%
D12*
%TO.P,R1,1*%
%TO.N,VCC*%
X147637500Y-95567500D03*
D13*
%TO.P,R1,2*%
%TO.N,/AT_DATA*%
X140017500Y-95567500D03*
%TD*%
D19*
%TO.P,J1,0*%
%TO.N,GND*%
X136247500Y-125667500D03*
X141247500Y-125667500D03*
%TO.P,J1,1*%
%TO.N,/XT_CLK*%
X146247500Y-115667500D03*
%TO.P,J1,2*%
%TO.N,/XT_DATA*%
X138747500Y-115667500D03*
%TO.P,J1,3*%
%TO.N,unconnected-(J1-Pad3)*%
X131247500Y-115667500D03*
%TO.P,J1,4*%
%TO.N,GND*%
X143747500Y-113167500D03*
%TO.P,J1,5*%
%TO.N,VCC*%
X133747500Y-113167500D03*
D20*
%TO.P,J1,~*%
%TO.N,GND*%
X146247500Y-120667500D03*
X131247500Y-120667500D03*
%TD*%
D12*
%TO.P,R2,1*%
%TO.N,VCC*%
X129857500Y-95567500D03*
D13*
%TO.P,R2,2*%
%TO.N,/AT_CLK*%
X137477500Y-95567500D03*
%TD*%
D21*
%TO.N,/AT_DATA*%
X137545780Y-85793280D02*
X137447500Y-85793280D01*
X138747500Y-86995000D02*
X137545780Y-85793280D01*
X138747500Y-94297500D02*
X138747500Y-86995000D01*
X140017500Y-95567500D02*
X138747500Y-94297500D01*
D22*
%TO.N,VCC*%
X134927500Y-106987500D02*
X130812612Y-102872612D01*
X134947500Y-106987500D02*
X134927500Y-106987500D01*
X130812612Y-102872612D02*
X129857500Y-102872612D01*
D21*
%TO.N,/XT_CLK*%
X144122500Y-117792500D02*
X146247500Y-115667500D01*
X137953750Y-117792500D02*
X144122500Y-117792500D01*
X136525000Y-116363750D02*
X137953750Y-117792500D01*
X137487500Y-113655000D02*
X136525000Y-114617500D01*
X136525000Y-114617500D02*
X136525000Y-116363750D01*
X137487500Y-106987500D02*
X137487500Y-113655000D01*
D22*
%TO.N,VCC*%
X128270000Y-95567500D02*
X128270000Y-90487500D01*
X134947500Y-106987500D02*
X134947500Y-111967500D01*
X146367500Y-92392500D02*
X144223360Y-90248360D01*
X147637500Y-95567500D02*
X147637500Y-92392500D01*
X134947500Y-111967500D02*
X133747500Y-113167500D01*
X128270000Y-90487500D02*
X135255000Y-83502500D01*
X128270000Y-102235000D02*
X128907612Y-102872612D01*
X135255000Y-81280000D02*
X137477500Y-79057500D01*
X135255000Y-83502500D02*
X135255000Y-81280000D01*
X140017500Y-79057500D02*
X142147500Y-81187500D01*
X144223360Y-90248360D02*
X144223360Y-87869140D01*
X128907612Y-102872612D02*
X129857500Y-102872612D01*
X142147500Y-81187500D02*
X142147500Y-85793280D01*
X137477500Y-79057500D02*
X140017500Y-79057500D01*
X128270000Y-95567500D02*
X129857500Y-95567500D01*
X147637500Y-92392500D02*
X146367500Y-92392500D01*
X128270000Y-95567500D02*
X128270000Y-102235000D01*
X144223360Y-87869140D02*
X142147500Y-85793280D01*
D21*
%TO.N,Net-(D1-Pad1)*%
X133687500Y-95567500D02*
X133032500Y-95567500D01*
X133032500Y-95567500D02*
X129857500Y-92392500D01*
X137487500Y-99367500D02*
X133687500Y-95567500D01*
%TO.N,/AT_CLK*%
X138747500Y-100330000D02*
X138747500Y-98425000D01*
X138747500Y-98425000D02*
X137477500Y-97155000D01*
X142567500Y-99367500D02*
X140970000Y-100965000D01*
X137477500Y-92392500D02*
X137477500Y-90423280D01*
X137477500Y-90423280D02*
X135347500Y-88293280D01*
X140970000Y-100965000D02*
X139382500Y-100965000D01*
X137477500Y-95567500D02*
X137477500Y-92392500D01*
X137477500Y-97155000D02*
X137477500Y-95567500D01*
X139382500Y-100965000D02*
X138747500Y-100330000D01*
%TO.N,/XT_DATA*%
X138747500Y-115667500D02*
X140027500Y-114387500D01*
X140027500Y-114387500D02*
X140027500Y-106987500D01*
%TO.N,/AT_DATA*%
X140027500Y-95577500D02*
X140017500Y-95567500D01*
X140027500Y-99367500D02*
X140027500Y-95577500D01*
%TO.N,Net-(R3-Pad2)*%
X144780000Y-97155000D02*
X140017500Y-92392500D01*
X144780000Y-103187500D02*
X144780000Y-97155000D01*
X147955000Y-103187500D02*
X144780000Y-103187500D01*
X142567500Y-106987500D02*
X144780000Y-104775000D01*
X144780000Y-103187500D02*
X144780000Y-104775000D01*
%TD*%
M02*
