%TF.GenerationSoftware,KiCad,Pcbnew,(6.0.2)*%
%TF.CreationDate,2025-12-01T11:41:35-08:00*%
%TF.ProjectId,ps2-xt,7073322d-7874-42e6-9b69-6361645f7063,rev?*%
%TF.SameCoordinates,Original*%
%TF.FileFunction,Legend,Bot*%
%TF.FilePolarity,Positive*%
%FSLAX46Y46*%
G04 Gerber Fmt 4.6, Leading zero omitted, Abs format (unit mm)*
G04 Created by KiCad (PCBNEW (6.0.2)) date 2025-12-01 11:41:35*
%MOMM*%
%LPD*%
G01*
G04 APERTURE LIST*
%ADD10C,0.150000*%
G04 APERTURE END LIST*
D10*
X140271309Y-87717380D02*
X139937976Y-88717380D01*
X139604642Y-87717380D01*
X138747500Y-88717380D02*
X139318928Y-88717380D01*
X139033214Y-88717380D02*
X139033214Y-87717380D01*
X139128452Y-87860238D01*
X139223690Y-87955476D01*
X139318928Y-88003095D01*
X138318928Y-88622142D02*
X138271309Y-88669761D01*
X138318928Y-88717380D01*
X138366547Y-88669761D01*
X138318928Y-88622142D01*
X138318928Y-88717380D01*
X137652261Y-87717380D02*
X137557023Y-87717380D01*
X137461785Y-87765000D01*
X137414166Y-87812619D01*
X137366547Y-87907857D01*
X137318928Y-88098333D01*
X137318928Y-88336428D01*
X137366547Y-88526904D01*
X137414166Y-88622142D01*
X137461785Y-88669761D01*
X137557023Y-88717380D01*
X137652261Y-88717380D01*
X137747500Y-88669761D01*
X137795119Y-88622142D01*
X137842738Y-88526904D01*
X137890357Y-88336428D01*
X137890357Y-88098333D01*
X137842738Y-87907857D01*
X137795119Y-87812619D01*
X137747500Y-87765000D01*
X137652261Y-87717380D01*
X144806785Y-89955714D02*
X144806785Y-90765238D01*
X144842500Y-90860476D01*
X144878214Y-90908095D01*
X144949642Y-90955714D01*
X145056785Y-90955714D01*
X145128214Y-90908095D01*
X144806785Y-90574761D02*
X144878214Y-90622380D01*
X145021071Y-90622380D01*
X145092500Y-90574761D01*
X145128214Y-90527142D01*
X145163928Y-90431904D01*
X145163928Y-90146190D01*
X145128214Y-90050952D01*
X145092500Y-90003333D01*
X145021071Y-89955714D01*
X144878214Y-89955714D01*
X144806785Y-90003333D01*
X144449642Y-90622380D02*
X144449642Y-89955714D01*
X144449642Y-89622380D02*
X144485357Y-89670000D01*
X144449642Y-89717619D01*
X144413928Y-89670000D01*
X144449642Y-89622380D01*
X144449642Y-89717619D01*
X144199642Y-89955714D02*
X143913928Y-89955714D01*
X144092500Y-89622380D02*
X144092500Y-90479523D01*
X144056785Y-90574761D01*
X143985357Y-90622380D01*
X143913928Y-90622380D01*
X143663928Y-90622380D02*
X143663928Y-89622380D01*
X143342500Y-90622380D02*
X143342500Y-90098571D01*
X143378214Y-90003333D01*
X143449642Y-89955714D01*
X143556785Y-89955714D01*
X143628214Y-90003333D01*
X143663928Y-90050952D01*
X142663928Y-89955714D02*
X142663928Y-90622380D01*
X142985357Y-89955714D02*
X142985357Y-90479523D01*
X142949642Y-90574761D01*
X142878214Y-90622380D01*
X142771071Y-90622380D01*
X142699642Y-90574761D01*
X142663928Y-90527142D01*
X142306785Y-90622380D02*
X142306785Y-89622380D01*
X142306785Y-90003333D02*
X142235357Y-89955714D01*
X142092500Y-89955714D01*
X142021071Y-90003333D01*
X141985357Y-90050952D01*
X141949642Y-90146190D01*
X141949642Y-90431904D01*
X141985357Y-90527142D01*
X142021071Y-90574761D01*
X142092500Y-90622380D01*
X142235357Y-90622380D01*
X142306785Y-90574761D01*
X141628214Y-90527142D02*
X141592500Y-90574761D01*
X141628214Y-90622380D01*
X141663928Y-90574761D01*
X141628214Y-90527142D01*
X141628214Y-90622380D01*
X140949642Y-90574761D02*
X141021071Y-90622380D01*
X141163928Y-90622380D01*
X141235357Y-90574761D01*
X141271071Y-90527142D01*
X141306785Y-90431904D01*
X141306785Y-90146190D01*
X141271071Y-90050952D01*
X141235357Y-90003333D01*
X141163928Y-89955714D01*
X141021071Y-89955714D01*
X140949642Y-90003333D01*
X140521071Y-90622380D02*
X140592500Y-90574761D01*
X140628214Y-90527142D01*
X140663928Y-90431904D01*
X140663928Y-90146190D01*
X140628214Y-90050952D01*
X140592500Y-90003333D01*
X140521071Y-89955714D01*
X140413928Y-89955714D01*
X140342500Y-90003333D01*
X140306785Y-90050952D01*
X140271071Y-90146190D01*
X140271071Y-90431904D01*
X140306785Y-90527142D01*
X140342500Y-90574761D01*
X140413928Y-90622380D01*
X140521071Y-90622380D01*
X139949642Y-90622380D02*
X139949642Y-89955714D01*
X139949642Y-90050952D02*
X139913928Y-90003333D01*
X139842500Y-89955714D01*
X139735357Y-89955714D01*
X139663928Y-90003333D01*
X139628214Y-90098571D01*
X139628214Y-90622380D01*
X139628214Y-90098571D02*
X139592500Y-90003333D01*
X139521071Y-89955714D01*
X139413928Y-89955714D01*
X139342500Y-90003333D01*
X139306785Y-90098571D01*
X139306785Y-90622380D01*
X138413928Y-89574761D02*
X139056785Y-90860476D01*
X138199642Y-90574761D02*
X138128214Y-90622380D01*
X137985357Y-90622380D01*
X137913928Y-90574761D01*
X137878214Y-90479523D01*
X137878214Y-90431904D01*
X137913928Y-90336666D01*
X137985357Y-90289047D01*
X138092500Y-90289047D01*
X138163928Y-90241428D01*
X138199642Y-90146190D01*
X138199642Y-90098571D01*
X138163928Y-90003333D01*
X138092500Y-89955714D01*
X137985357Y-89955714D01*
X137913928Y-90003333D01*
X137556785Y-90622380D02*
X137556785Y-89622380D01*
X137485357Y-90241428D02*
X137271071Y-90622380D01*
X137271071Y-89955714D02*
X137556785Y-90336666D01*
X136949642Y-90622380D02*
X136949642Y-89955714D01*
X136949642Y-89622380D02*
X136985357Y-89670000D01*
X136949642Y-89717619D01*
X136913928Y-89670000D01*
X136949642Y-89622380D01*
X136949642Y-89717619D01*
X136628214Y-90574761D02*
X136556785Y-90622380D01*
X136413928Y-90622380D01*
X136342500Y-90574761D01*
X136306785Y-90479523D01*
X136306785Y-90431904D01*
X136342500Y-90336666D01*
X136413928Y-90289047D01*
X136521071Y-90289047D01*
X136592500Y-90241428D01*
X136628214Y-90146190D01*
X136628214Y-90098571D01*
X136592500Y-90003333D01*
X136521071Y-89955714D01*
X136413928Y-89955714D01*
X136342500Y-90003333D01*
X135699642Y-90574761D02*
X135771071Y-90622380D01*
X135913928Y-90622380D01*
X135985357Y-90574761D01*
X136021071Y-90479523D01*
X136021071Y-90098571D01*
X135985357Y-90003333D01*
X135913928Y-89955714D01*
X135771071Y-89955714D01*
X135699642Y-90003333D01*
X135663928Y-90098571D01*
X135663928Y-90193809D01*
X136021071Y-90289047D01*
X135235357Y-90622380D02*
X135306785Y-90574761D01*
X135342500Y-90479523D01*
X135342500Y-89622380D01*
X134663928Y-90574761D02*
X134735357Y-90622380D01*
X134878214Y-90622380D01*
X134949642Y-90574761D01*
X134985357Y-90479523D01*
X134985357Y-90098571D01*
X134949642Y-90003333D01*
X134878214Y-89955714D01*
X134735357Y-89955714D01*
X134663928Y-90003333D01*
X134628214Y-90098571D01*
X134628214Y-90193809D01*
X134985357Y-90289047D01*
X134378214Y-89955714D02*
X134199642Y-90622380D01*
X134021071Y-89955714D01*
X133199642Y-89574761D02*
X133842500Y-90860476D01*
X132949642Y-89955714D02*
X132949642Y-90955714D01*
X132949642Y-90003333D02*
X132878214Y-89955714D01*
X132735357Y-89955714D01*
X132663928Y-90003333D01*
X132628214Y-90050952D01*
X132592500Y-90146190D01*
X132592500Y-90431904D01*
X132628214Y-90527142D01*
X132663928Y-90574761D01*
X132735357Y-90622380D01*
X132878214Y-90622380D01*
X132949642Y-90574761D01*
X132306785Y-90574761D02*
X132235357Y-90622380D01*
X132092500Y-90622380D01*
X132021071Y-90574761D01*
X131985357Y-90479523D01*
X131985357Y-90431904D01*
X132021071Y-90336666D01*
X132092500Y-90289047D01*
X132199642Y-90289047D01*
X132271071Y-90241428D01*
X132306785Y-90146190D01*
X132306785Y-90098571D01*
X132271071Y-90003333D01*
X132199642Y-89955714D01*
X132092500Y-89955714D01*
X132021071Y-90003333D01*
X131699642Y-89717619D02*
X131663928Y-89670000D01*
X131592500Y-89622380D01*
X131413928Y-89622380D01*
X131342500Y-89670000D01*
X131306785Y-89717619D01*
X131271071Y-89812857D01*
X131271071Y-89908095D01*
X131306785Y-90050952D01*
X131735357Y-90622380D01*
X131271071Y-90622380D01*
X130949642Y-90241428D02*
X130378214Y-90241428D01*
X130092500Y-90622380D02*
X129699642Y-89955714D01*
X130092500Y-89955714D02*
X129699642Y-90622380D01*
X129521071Y-89955714D02*
X129235357Y-89955714D01*
X129413928Y-89622380D02*
X129413928Y-90479523D01*
X129378214Y-90574761D01*
X129306785Y-90622380D01*
X129235357Y-90622380D01*
X128449642Y-89574761D02*
X129092500Y-90860476D01*
X141015357Y-101188571D02*
X141265357Y-101188571D01*
X141265357Y-101712380D02*
X141265357Y-100712380D01*
X140908214Y-100712380D01*
X140622500Y-101712380D02*
X140622500Y-101045714D01*
X140622500Y-100712380D02*
X140658214Y-100760000D01*
X140622500Y-100807619D01*
X140586785Y-100760000D01*
X140622500Y-100712380D01*
X140622500Y-100807619D01*
X140265357Y-101712380D02*
X140265357Y-101045714D01*
X140265357Y-101236190D02*
X140229642Y-101140952D01*
X140193928Y-101093333D01*
X140122500Y-101045714D01*
X140051071Y-101045714D01*
X139801071Y-101712380D02*
X139801071Y-101045714D01*
X139801071Y-101140952D02*
X139765357Y-101093333D01*
X139693928Y-101045714D01*
X139586785Y-101045714D01*
X139515357Y-101093333D01*
X139479642Y-101188571D01*
X139479642Y-101712380D01*
X139479642Y-101188571D02*
X139443928Y-101093333D01*
X139372500Y-101045714D01*
X139265357Y-101045714D01*
X139193928Y-101093333D01*
X139158214Y-101188571D01*
X139158214Y-101712380D01*
X138872500Y-101045714D02*
X138729642Y-101712380D01*
X138586785Y-101236190D01*
X138443928Y-101712380D01*
X138301071Y-101045714D01*
X137693928Y-101712380D02*
X137693928Y-101188571D01*
X137729642Y-101093333D01*
X137801071Y-101045714D01*
X137943928Y-101045714D01*
X138015357Y-101093333D01*
X137693928Y-101664761D02*
X137765357Y-101712380D01*
X137943928Y-101712380D01*
X138015357Y-101664761D01*
X138051071Y-101569523D01*
X138051071Y-101474285D01*
X138015357Y-101379047D01*
X137943928Y-101331428D01*
X137765357Y-101331428D01*
X137693928Y-101283809D01*
X137336785Y-101712380D02*
X137336785Y-101045714D01*
X137336785Y-101236190D02*
X137301071Y-101140952D01*
X137265357Y-101093333D01*
X137193928Y-101045714D01*
X137122500Y-101045714D01*
X136586785Y-101664761D02*
X136658214Y-101712380D01*
X136801071Y-101712380D01*
X136872500Y-101664761D01*
X136908214Y-101569523D01*
X136908214Y-101188571D01*
X136872500Y-101093333D01*
X136801071Y-101045714D01*
X136658214Y-101045714D01*
X136586785Y-101093333D01*
X136551071Y-101188571D01*
X136551071Y-101283809D01*
X136908214Y-101379047D01*
X136229642Y-101617142D02*
X136193928Y-101664761D01*
X136229642Y-101712380D01*
X136265357Y-101664761D01*
X136229642Y-101617142D01*
X136229642Y-101712380D01*
X136229642Y-101093333D02*
X136193928Y-101140952D01*
X136229642Y-101188571D01*
X136265357Y-101140952D01*
X136229642Y-101093333D01*
X136229642Y-101188571D01*
X145961785Y-103703333D02*
X145997500Y-103655714D01*
X146068928Y-103512857D01*
X146104642Y-103417619D01*
X146140357Y-103274761D01*
X146176071Y-103036666D01*
X146176071Y-102846190D01*
X146140357Y-102608095D01*
X146104642Y-102465238D01*
X146068928Y-102370000D01*
X145997500Y-102227142D01*
X145961785Y-102179523D01*
X145247500Y-103227142D02*
X145283214Y-103274761D01*
X145390357Y-103322380D01*
X145461785Y-103322380D01*
X145568928Y-103274761D01*
X145640357Y-103179523D01*
X145676071Y-103084285D01*
X145711785Y-102893809D01*
X145711785Y-102750952D01*
X145676071Y-102560476D01*
X145640357Y-102465238D01*
X145568928Y-102370000D01*
X145461785Y-102322380D01*
X145390357Y-102322380D01*
X145283214Y-102370000D01*
X145247500Y-102417619D01*
X144997500Y-103703333D02*
X144961785Y-103655714D01*
X144890357Y-103512857D01*
X144854642Y-103417619D01*
X144818928Y-103274761D01*
X144783214Y-103036666D01*
X144783214Y-102846190D01*
X144818928Y-102608095D01*
X144854642Y-102465238D01*
X144890357Y-102370000D01*
X144961785Y-102227142D01*
X144997500Y-102179523D01*
X143890357Y-102417619D02*
X143854642Y-102370000D01*
X143783214Y-102322380D01*
X143604642Y-102322380D01*
X143533214Y-102370000D01*
X143497500Y-102417619D01*
X143461785Y-102512857D01*
X143461785Y-102608095D01*
X143497500Y-102750952D01*
X143926071Y-103322380D01*
X143461785Y-103322380D01*
X142997500Y-102322380D02*
X142926071Y-102322380D01*
X142854642Y-102370000D01*
X142818928Y-102417619D01*
X142783214Y-102512857D01*
X142747500Y-102703333D01*
X142747500Y-102941428D01*
X142783214Y-103131904D01*
X142818928Y-103227142D01*
X142854642Y-103274761D01*
X142926071Y-103322380D01*
X142997500Y-103322380D01*
X143068928Y-103274761D01*
X143104642Y-103227142D01*
X143140357Y-103131904D01*
X143176071Y-102941428D01*
X143176071Y-102703333D01*
X143140357Y-102512857D01*
X143104642Y-102417619D01*
X143068928Y-102370000D01*
X142997500Y-102322380D01*
X142033214Y-103322380D02*
X142461785Y-103322380D01*
X142247500Y-103322380D02*
X142247500Y-102322380D01*
X142318928Y-102465238D01*
X142390357Y-102560476D01*
X142461785Y-102608095D01*
X141318928Y-103322380D02*
X141747500Y-103322380D01*
X141533214Y-103322380D02*
X141533214Y-102322380D01*
X141604642Y-102465238D01*
X141676071Y-102560476D01*
X141747500Y-102608095D01*
X139997500Y-103227142D02*
X140033214Y-103274761D01*
X140140357Y-103322380D01*
X140211785Y-103322380D01*
X140318928Y-103274761D01*
X140390357Y-103179523D01*
X140426071Y-103084285D01*
X140461785Y-102893809D01*
X140461785Y-102750952D01*
X140426071Y-102560476D01*
X140390357Y-102465238D01*
X140318928Y-102370000D01*
X140211785Y-102322380D01*
X140140357Y-102322380D01*
X140033214Y-102370000D01*
X139997500Y-102417619D01*
X139676071Y-103322380D02*
X139676071Y-102322380D01*
X139354642Y-103322380D02*
X139354642Y-102798571D01*
X139390357Y-102703333D01*
X139461785Y-102655714D01*
X139568928Y-102655714D01*
X139640357Y-102703333D01*
X139676071Y-102750952D01*
X138676071Y-103322380D02*
X138676071Y-102798571D01*
X138711785Y-102703333D01*
X138783214Y-102655714D01*
X138926071Y-102655714D01*
X138997500Y-102703333D01*
X138676071Y-103274761D02*
X138747500Y-103322380D01*
X138926071Y-103322380D01*
X138997500Y-103274761D01*
X139033214Y-103179523D01*
X139033214Y-103084285D01*
X138997500Y-102989047D01*
X138926071Y-102941428D01*
X138747500Y-102941428D01*
X138676071Y-102893809D01*
X138318928Y-103322380D02*
X138318928Y-102655714D01*
X138318928Y-102846190D02*
X138283214Y-102750952D01*
X138247500Y-102703333D01*
X138176071Y-102655714D01*
X138104642Y-102655714D01*
X137747500Y-103322380D02*
X137818928Y-103274761D01*
X137854642Y-103179523D01*
X137854642Y-102322380D01*
X137176071Y-103274761D02*
X137247500Y-103322380D01*
X137390357Y-103322380D01*
X137461785Y-103274761D01*
X137497500Y-103179523D01*
X137497500Y-102798571D01*
X137461785Y-102703333D01*
X137390357Y-102655714D01*
X137247500Y-102655714D01*
X137176071Y-102703333D01*
X137140357Y-102798571D01*
X137140357Y-102893809D01*
X137497500Y-102989047D01*
X136854642Y-103274761D02*
X136783214Y-103322380D01*
X136640357Y-103322380D01*
X136568928Y-103274761D01*
X136533214Y-103179523D01*
X136533214Y-103131904D01*
X136568928Y-103036666D01*
X136640357Y-102989047D01*
X136747500Y-102989047D01*
X136818928Y-102941428D01*
X136854642Y-102846190D01*
X136854642Y-102798571D01*
X136818928Y-102703333D01*
X136747500Y-102655714D01*
X136640357Y-102655714D01*
X136568928Y-102703333D01*
X135640357Y-103322380D02*
X135640357Y-102322380D01*
X135354642Y-102322380D01*
X135283214Y-102370000D01*
X135247500Y-102417619D01*
X135211785Y-102512857D01*
X135211785Y-102655714D01*
X135247500Y-102750952D01*
X135283214Y-102798571D01*
X135354642Y-102846190D01*
X135640357Y-102846190D01*
X134890357Y-103227142D02*
X134854642Y-103274761D01*
X134890357Y-103322380D01*
X134926071Y-103274761D01*
X134890357Y-103227142D01*
X134890357Y-103322380D01*
X133568928Y-102370000D02*
X133640357Y-102322380D01*
X133747500Y-102322380D01*
X133854642Y-102370000D01*
X133926071Y-102465238D01*
X133961785Y-102560476D01*
X133997500Y-102750952D01*
X133997500Y-102893809D01*
X133961785Y-103084285D01*
X133926071Y-103179523D01*
X133854642Y-103274761D01*
X133747500Y-103322380D01*
X133676071Y-103322380D01*
X133568928Y-103274761D01*
X133533214Y-103227142D01*
X133533214Y-102893809D01*
X133676071Y-102893809D01*
X132890357Y-102655714D02*
X132890357Y-103322380D01*
X133211785Y-102655714D02*
X133211785Y-103179523D01*
X133176071Y-103274761D01*
X133104642Y-103322380D01*
X132997500Y-103322380D01*
X132926071Y-103274761D01*
X132890357Y-103227142D01*
X132604642Y-102655714D02*
X132211785Y-102655714D01*
X132604642Y-103322380D01*
X132211785Y-103322380D01*
X131926071Y-103322380D02*
X131926071Y-102655714D01*
X131926071Y-102322380D02*
X131961785Y-102370000D01*
X131926071Y-102417619D01*
X131890357Y-102370000D01*
X131926071Y-102322380D01*
X131926071Y-102417619D01*
X131604642Y-103274761D02*
X131533214Y-103322380D01*
X131390357Y-103322380D01*
X131318928Y-103274761D01*
X131283214Y-103179523D01*
X131283214Y-103131904D01*
X131318928Y-103036666D01*
X131390357Y-102989047D01*
X131497500Y-102989047D01*
X131568928Y-102941428D01*
X131604642Y-102846190D01*
X131604642Y-102798571D01*
X131568928Y-102703333D01*
X131497500Y-102655714D01*
X131390357Y-102655714D01*
X131318928Y-102703333D01*
X146711785Y-103932380D02*
X146711785Y-104122857D01*
X146426071Y-103932380D02*
X146426071Y-104122857D01*
X145711785Y-103980000D02*
X145783214Y-103932380D01*
X145890357Y-103932380D01*
X145997500Y-103980000D01*
X146068928Y-104075238D01*
X146104642Y-104170476D01*
X146140357Y-104360952D01*
X146140357Y-104503809D01*
X146104642Y-104694285D01*
X146068928Y-104789523D01*
X145997500Y-104884761D01*
X145890357Y-104932380D01*
X145818928Y-104932380D01*
X145711785Y-104884761D01*
X145676071Y-104837142D01*
X145676071Y-104503809D01*
X145818928Y-104503809D01*
X145247500Y-104932380D02*
X145318928Y-104884761D01*
X145354642Y-104837142D01*
X145390357Y-104741904D01*
X145390357Y-104456190D01*
X145354642Y-104360952D01*
X145318928Y-104313333D01*
X145247500Y-104265714D01*
X145140357Y-104265714D01*
X145068928Y-104313333D01*
X145033214Y-104360952D01*
X144997500Y-104456190D01*
X144997500Y-104741904D01*
X145033214Y-104837142D01*
X145068928Y-104884761D01*
X145140357Y-104932380D01*
X145247500Y-104932380D01*
X144676071Y-104265714D02*
X144676071Y-104932380D01*
X144676071Y-104360952D02*
X144640357Y-104313333D01*
X144568928Y-104265714D01*
X144461785Y-104265714D01*
X144390357Y-104313333D01*
X144354642Y-104408571D01*
X144354642Y-104932380D01*
X143711785Y-104884761D02*
X143783214Y-104932380D01*
X143926071Y-104932380D01*
X143997500Y-104884761D01*
X144033214Y-104789523D01*
X144033214Y-104408571D01*
X143997500Y-104313333D01*
X143926071Y-104265714D01*
X143783214Y-104265714D01*
X143711785Y-104313333D01*
X143676071Y-104408571D01*
X143676071Y-104503809D01*
X144033214Y-104599047D01*
X143318928Y-104884761D02*
X143318928Y-104932380D01*
X143354642Y-105027619D01*
X143390357Y-105075238D01*
X142426071Y-104932380D02*
X142426071Y-103932380D01*
X142426071Y-104313333D02*
X142354642Y-104265714D01*
X142211785Y-104265714D01*
X142140357Y-104313333D01*
X142104642Y-104360952D01*
X142068928Y-104456190D01*
X142068928Y-104741904D01*
X142104642Y-104837142D01*
X142140357Y-104884761D01*
X142211785Y-104932380D01*
X142354642Y-104932380D01*
X142426071Y-104884761D01*
X141426071Y-104265714D02*
X141426071Y-104932380D01*
X141747500Y-104265714D02*
X141747500Y-104789523D01*
X141711785Y-104884761D01*
X141640357Y-104932380D01*
X141533214Y-104932380D01*
X141461785Y-104884761D01*
X141426071Y-104837142D01*
X141176071Y-104265714D02*
X140890357Y-104265714D01*
X141068928Y-103932380D02*
X141068928Y-104789523D01*
X141033214Y-104884761D01*
X140961785Y-104932380D01*
X140890357Y-104932380D01*
X140068928Y-104265714D02*
X140068928Y-104932380D01*
X140068928Y-104360952D02*
X140033214Y-104313333D01*
X139961785Y-104265714D01*
X139854642Y-104265714D01*
X139783214Y-104313333D01*
X139747500Y-104408571D01*
X139747500Y-104932380D01*
X139104642Y-104884761D02*
X139176071Y-104932380D01*
X139318928Y-104932380D01*
X139390357Y-104884761D01*
X139426071Y-104789523D01*
X139426071Y-104408571D01*
X139390357Y-104313333D01*
X139318928Y-104265714D01*
X139176071Y-104265714D01*
X139104642Y-104313333D01*
X139068928Y-104408571D01*
X139068928Y-104503809D01*
X139426071Y-104599047D01*
X138818928Y-104265714D02*
X138640357Y-104932380D01*
X138461785Y-104265714D01*
X137890357Y-104884761D02*
X137961785Y-104932380D01*
X138104642Y-104932380D01*
X138176071Y-104884761D01*
X138211785Y-104789523D01*
X138211785Y-104408571D01*
X138176071Y-104313333D01*
X138104642Y-104265714D01*
X137961785Y-104265714D01*
X137890357Y-104313333D01*
X137854642Y-104408571D01*
X137854642Y-104503809D01*
X138211785Y-104599047D01*
X137533214Y-104932380D02*
X137533214Y-104265714D01*
X137533214Y-104456190D02*
X137497500Y-104360952D01*
X137461785Y-104313333D01*
X137390357Y-104265714D01*
X137318928Y-104265714D01*
X136604642Y-104265714D02*
X136318928Y-104265714D01*
X136497500Y-104932380D02*
X136497500Y-104075238D01*
X136461785Y-103980000D01*
X136390357Y-103932380D01*
X136318928Y-103932380D01*
X135961785Y-104932380D02*
X136033214Y-104884761D01*
X136068928Y-104837142D01*
X136104642Y-104741904D01*
X136104642Y-104456190D01*
X136068928Y-104360952D01*
X136033214Y-104313333D01*
X135961785Y-104265714D01*
X135854642Y-104265714D01*
X135783214Y-104313333D01*
X135747500Y-104360952D01*
X135711785Y-104456190D01*
X135711785Y-104741904D01*
X135747500Y-104837142D01*
X135783214Y-104884761D01*
X135854642Y-104932380D01*
X135961785Y-104932380D01*
X135390357Y-104932380D02*
X135390357Y-104265714D01*
X135390357Y-104456190D02*
X135354642Y-104360952D01*
X135318928Y-104313333D01*
X135247500Y-104265714D01*
X135176071Y-104265714D01*
X134604642Y-104265714D02*
X134604642Y-105075238D01*
X134640357Y-105170476D01*
X134676071Y-105218095D01*
X134747500Y-105265714D01*
X134854642Y-105265714D01*
X134926071Y-105218095D01*
X134604642Y-104884761D02*
X134676071Y-104932380D01*
X134818928Y-104932380D01*
X134890357Y-104884761D01*
X134926071Y-104837142D01*
X134961785Y-104741904D01*
X134961785Y-104456190D01*
X134926071Y-104360952D01*
X134890357Y-104313333D01*
X134818928Y-104265714D01*
X134676071Y-104265714D01*
X134604642Y-104313333D01*
X134140357Y-104932380D02*
X134211785Y-104884761D01*
X134247500Y-104837142D01*
X134283214Y-104741904D01*
X134283214Y-104456190D01*
X134247500Y-104360952D01*
X134211785Y-104313333D01*
X134140357Y-104265714D01*
X134033214Y-104265714D01*
X133961785Y-104313333D01*
X133926071Y-104360952D01*
X133890357Y-104456190D01*
X133890357Y-104741904D01*
X133926071Y-104837142D01*
X133961785Y-104884761D01*
X134033214Y-104932380D01*
X134140357Y-104932380D01*
X133676071Y-104265714D02*
X133390357Y-104265714D01*
X133568928Y-103932380D02*
X133568928Y-104789523D01*
X133533214Y-104884761D01*
X133461785Y-104932380D01*
X133390357Y-104932380D01*
X133247500Y-104265714D02*
X132961785Y-104265714D01*
X133140357Y-103932380D02*
X133140357Y-104789523D01*
X133104642Y-104884761D01*
X133033214Y-104932380D01*
X132961785Y-104932380D01*
X132426071Y-104884761D02*
X132497500Y-104932380D01*
X132640357Y-104932380D01*
X132711785Y-104884761D01*
X132747500Y-104789523D01*
X132747500Y-104408571D01*
X132711785Y-104313333D01*
X132640357Y-104265714D01*
X132497500Y-104265714D01*
X132426071Y-104313333D01*
X132390357Y-104408571D01*
X132390357Y-104503809D01*
X132747500Y-104599047D01*
X132068928Y-104265714D02*
X132068928Y-104932380D01*
X132068928Y-104360952D02*
X132033214Y-104313333D01*
X131961785Y-104265714D01*
X131854642Y-104265714D01*
X131783214Y-104313333D01*
X131747500Y-104408571D01*
X131747500Y-104932380D01*
X131390357Y-104837142D02*
X131354642Y-104884761D01*
X131390357Y-104932380D01*
X131426071Y-104884761D01*
X131390357Y-104837142D01*
X131390357Y-104932380D01*
X131068928Y-103932380D02*
X131068928Y-104122857D01*
X130783214Y-103932380D02*
X130783214Y-104122857D01*
X142015357Y-109502380D02*
X142015357Y-108502380D01*
X141729642Y-108502380D01*
X141658214Y-108550000D01*
X141622500Y-108597619D01*
X141586785Y-108692857D01*
X141586785Y-108835714D01*
X141622500Y-108930952D01*
X141658214Y-108978571D01*
X141729642Y-109026190D01*
X142015357Y-109026190D01*
X140836785Y-109407142D02*
X140872500Y-109454761D01*
X140979642Y-109502380D01*
X141051071Y-109502380D01*
X141158214Y-109454761D01*
X141229642Y-109359523D01*
X141265357Y-109264285D01*
X141301071Y-109073809D01*
X141301071Y-108930952D01*
X141265357Y-108740476D01*
X141229642Y-108645238D01*
X141158214Y-108550000D01*
X141051071Y-108502380D01*
X140979642Y-108502380D01*
X140872500Y-108550000D01*
X140836785Y-108597619D01*
X140265357Y-108978571D02*
X140158214Y-109026190D01*
X140122500Y-109073809D01*
X140086785Y-109169047D01*
X140086785Y-109311904D01*
X140122500Y-109407142D01*
X140158214Y-109454761D01*
X140229642Y-109502380D01*
X140515357Y-109502380D01*
X140515357Y-108502380D01*
X140265357Y-108502380D01*
X140193928Y-108550000D01*
X140158214Y-108597619D01*
X140122500Y-108692857D01*
X140122500Y-108788095D01*
X140158214Y-108883333D01*
X140193928Y-108930952D01*
X140265357Y-108978571D01*
X140515357Y-108978571D01*
X139193928Y-109502380D02*
X139193928Y-108502380D01*
X139015357Y-108502380D01*
X138908214Y-108550000D01*
X138836785Y-108645238D01*
X138801071Y-108740476D01*
X138765357Y-108930952D01*
X138765357Y-109073809D01*
X138801071Y-109264285D01*
X138836785Y-109359523D01*
X138908214Y-109454761D01*
X139015357Y-109502380D01*
X139193928Y-109502380D01*
X138158214Y-109454761D02*
X138229642Y-109502380D01*
X138372500Y-109502380D01*
X138443928Y-109454761D01*
X138479642Y-109359523D01*
X138479642Y-108978571D01*
X138443928Y-108883333D01*
X138372500Y-108835714D01*
X138229642Y-108835714D01*
X138158214Y-108883333D01*
X138122500Y-108978571D01*
X138122500Y-109073809D01*
X138479642Y-109169047D01*
X137836785Y-109454761D02*
X137765357Y-109502380D01*
X137622500Y-109502380D01*
X137551071Y-109454761D01*
X137515357Y-109359523D01*
X137515357Y-109311904D01*
X137551071Y-109216666D01*
X137622500Y-109169047D01*
X137729642Y-109169047D01*
X137801071Y-109121428D01*
X137836785Y-109026190D01*
X137836785Y-108978571D01*
X137801071Y-108883333D01*
X137729642Y-108835714D01*
X137622500Y-108835714D01*
X137551071Y-108883333D01*
X137193928Y-109502380D02*
X137193928Y-108835714D01*
X137193928Y-108502380D02*
X137229642Y-108550000D01*
X137193928Y-108597619D01*
X137158214Y-108550000D01*
X137193928Y-108502380D01*
X137193928Y-108597619D01*
X136515357Y-108835714D02*
X136515357Y-109645238D01*
X136551071Y-109740476D01*
X136586785Y-109788095D01*
X136658214Y-109835714D01*
X136765357Y-109835714D01*
X136836785Y-109788095D01*
X136515357Y-109454761D02*
X136586785Y-109502380D01*
X136729642Y-109502380D01*
X136801071Y-109454761D01*
X136836785Y-109407142D01*
X136872500Y-109311904D01*
X136872500Y-109026190D01*
X136836785Y-108930952D01*
X136801071Y-108883333D01*
X136729642Y-108835714D01*
X136586785Y-108835714D01*
X136515357Y-108883333D01*
X136158214Y-108835714D02*
X136158214Y-109502380D01*
X136158214Y-108930952D02*
X136122500Y-108883333D01*
X136051071Y-108835714D01*
X135943928Y-108835714D01*
X135872500Y-108883333D01*
X135836785Y-108978571D01*
X135836785Y-109502380D01*
X135479642Y-109407142D02*
X135443928Y-109454761D01*
X135479642Y-109502380D01*
X135515357Y-109454761D01*
X135479642Y-109407142D01*
X135479642Y-109502380D01*
X135479642Y-108883333D02*
X135443928Y-108930952D01*
X135479642Y-108978571D01*
X135515357Y-108930952D01*
X135479642Y-108883333D01*
X135479642Y-108978571D01*
X145354642Y-111493333D02*
X145390357Y-111445714D01*
X145461785Y-111302857D01*
X145497500Y-111207619D01*
X145533214Y-111064761D01*
X145568928Y-110826666D01*
X145568928Y-110636190D01*
X145533214Y-110398095D01*
X145497500Y-110255238D01*
X145461785Y-110160000D01*
X145390357Y-110017142D01*
X145354642Y-109969523D01*
X144640357Y-111017142D02*
X144676071Y-111064761D01*
X144783214Y-111112380D01*
X144854642Y-111112380D01*
X144961785Y-111064761D01*
X145033214Y-110969523D01*
X145068928Y-110874285D01*
X145104642Y-110683809D01*
X145104642Y-110540952D01*
X145068928Y-110350476D01*
X145033214Y-110255238D01*
X144961785Y-110160000D01*
X144854642Y-110112380D01*
X144783214Y-110112380D01*
X144676071Y-110160000D01*
X144640357Y-110207619D01*
X144390357Y-111493333D02*
X144354642Y-111445714D01*
X144283214Y-111302857D01*
X144247500Y-111207619D01*
X144211785Y-111064761D01*
X144176071Y-110826666D01*
X144176071Y-110636190D01*
X144211785Y-110398095D01*
X144247500Y-110255238D01*
X144283214Y-110160000D01*
X144354642Y-110017142D01*
X144390357Y-109969523D01*
X143283214Y-110207619D02*
X143247500Y-110160000D01*
X143176071Y-110112380D01*
X142997500Y-110112380D01*
X142926071Y-110160000D01*
X142890357Y-110207619D01*
X142854642Y-110302857D01*
X142854642Y-110398095D01*
X142890357Y-110540952D01*
X143318928Y-111112380D01*
X142854642Y-111112380D01*
X142390357Y-110112380D02*
X142318928Y-110112380D01*
X142247500Y-110160000D01*
X142211785Y-110207619D01*
X142176071Y-110302857D01*
X142140357Y-110493333D01*
X142140357Y-110731428D01*
X142176071Y-110921904D01*
X142211785Y-111017142D01*
X142247500Y-111064761D01*
X142318928Y-111112380D01*
X142390357Y-111112380D01*
X142461785Y-111064761D01*
X142497500Y-111017142D01*
X142533214Y-110921904D01*
X142568928Y-110731428D01*
X142568928Y-110493333D01*
X142533214Y-110302857D01*
X142497500Y-110207619D01*
X142461785Y-110160000D01*
X142390357Y-110112380D01*
X141854642Y-110207619D02*
X141818928Y-110160000D01*
X141747500Y-110112380D01*
X141568928Y-110112380D01*
X141497500Y-110160000D01*
X141461785Y-110207619D01*
X141426071Y-110302857D01*
X141426071Y-110398095D01*
X141461785Y-110540952D01*
X141890357Y-111112380D01*
X141426071Y-111112380D01*
X140747500Y-110112380D02*
X141104642Y-110112380D01*
X141140357Y-110588571D01*
X141104642Y-110540952D01*
X141033214Y-110493333D01*
X140854642Y-110493333D01*
X140783214Y-110540952D01*
X140747500Y-110588571D01*
X140711785Y-110683809D01*
X140711785Y-110921904D01*
X140747500Y-111017142D01*
X140783214Y-111064761D01*
X140854642Y-111112380D01*
X141033214Y-111112380D01*
X141104642Y-111064761D01*
X141140357Y-111017142D01*
X139854642Y-111064761D02*
X139747500Y-111112380D01*
X139568928Y-111112380D01*
X139497500Y-111064761D01*
X139461785Y-111017142D01*
X139426071Y-110921904D01*
X139426071Y-110826666D01*
X139461785Y-110731428D01*
X139497500Y-110683809D01*
X139568928Y-110636190D01*
X139711785Y-110588571D01*
X139783214Y-110540952D01*
X139818928Y-110493333D01*
X139854642Y-110398095D01*
X139854642Y-110302857D01*
X139818928Y-110207619D01*
X139783214Y-110160000D01*
X139711785Y-110112380D01*
X139533214Y-110112380D01*
X139426071Y-110160000D01*
X138818928Y-111064761D02*
X138890357Y-111112380D01*
X139033214Y-111112380D01*
X139104642Y-111064761D01*
X139140357Y-110969523D01*
X139140357Y-110588571D01*
X139104642Y-110493333D01*
X139033214Y-110445714D01*
X138890357Y-110445714D01*
X138818928Y-110493333D01*
X138783214Y-110588571D01*
X138783214Y-110683809D01*
X139140357Y-110779047D01*
X138461785Y-111112380D02*
X138461785Y-110445714D01*
X138461785Y-110636190D02*
X138426071Y-110540952D01*
X138390357Y-110493333D01*
X138318928Y-110445714D01*
X138247500Y-110445714D01*
X137676071Y-110445714D02*
X137676071Y-111255238D01*
X137711785Y-111350476D01*
X137747500Y-111398095D01*
X137818928Y-111445714D01*
X137926071Y-111445714D01*
X137997500Y-111398095D01*
X137676071Y-111064761D02*
X137747500Y-111112380D01*
X137890357Y-111112380D01*
X137961785Y-111064761D01*
X137997500Y-111017142D01*
X138033214Y-110921904D01*
X138033214Y-110636190D01*
X137997500Y-110540952D01*
X137961785Y-110493333D01*
X137890357Y-110445714D01*
X137747500Y-110445714D01*
X137676071Y-110493333D01*
X137033214Y-111064761D02*
X137104642Y-111112380D01*
X137247500Y-111112380D01*
X137318928Y-111064761D01*
X137354642Y-110969523D01*
X137354642Y-110588571D01*
X137318928Y-110493333D01*
X137247500Y-110445714D01*
X137104642Y-110445714D01*
X137033214Y-110493333D01*
X136997500Y-110588571D01*
X136997500Y-110683809D01*
X137354642Y-110779047D01*
X136747500Y-110445714D02*
X136568928Y-111112380D01*
X136390357Y-110445714D02*
X136568928Y-111112380D01*
X136640357Y-111350476D01*
X136676071Y-111398095D01*
X136747500Y-111445714D01*
X135533214Y-111112380D02*
X135533214Y-110112380D01*
X135104642Y-111112380D02*
X135426071Y-110540952D01*
X135104642Y-110112380D02*
X135533214Y-110683809D01*
X134783214Y-111112380D02*
X134783214Y-110445714D01*
X134783214Y-110112380D02*
X134818928Y-110160000D01*
X134783214Y-110207619D01*
X134747500Y-110160000D01*
X134783214Y-110112380D01*
X134783214Y-110207619D01*
X134461785Y-111064761D02*
X134390357Y-111112380D01*
X134247500Y-111112380D01*
X134176071Y-111064761D01*
X134140357Y-110969523D01*
X134140357Y-110921904D01*
X134176071Y-110826666D01*
X134247500Y-110779047D01*
X134354642Y-110779047D01*
X134426071Y-110731428D01*
X134461785Y-110636190D01*
X134461785Y-110588571D01*
X134426071Y-110493333D01*
X134354642Y-110445714D01*
X134247500Y-110445714D01*
X134176071Y-110493333D01*
X133533214Y-111064761D02*
X133604642Y-111112380D01*
X133747500Y-111112380D01*
X133818928Y-111064761D01*
X133854642Y-110969523D01*
X133854642Y-110588571D01*
X133818928Y-110493333D01*
X133747500Y-110445714D01*
X133604642Y-110445714D01*
X133533214Y-110493333D01*
X133497500Y-110588571D01*
X133497500Y-110683809D01*
X133854642Y-110779047D01*
X133068928Y-111112380D02*
X133140357Y-111064761D01*
X133176071Y-110969523D01*
X133176071Y-110112380D01*
X132497500Y-111064761D02*
X132568928Y-111112380D01*
X132711785Y-111112380D01*
X132783214Y-111064761D01*
X132818928Y-110969523D01*
X132818928Y-110588571D01*
X132783214Y-110493333D01*
X132711785Y-110445714D01*
X132568928Y-110445714D01*
X132497500Y-110493333D01*
X132461785Y-110588571D01*
X132461785Y-110683809D01*
X132818928Y-110779047D01*
X132211785Y-110445714D02*
X132033214Y-111112380D01*
X131854642Y-110445714D01*
M02*
